<?xml version="1.0" standalone="no"?>
<!DOCTYPE svg PUBLIC "-//W3C//DTD SVG 20010904//EN"
 "http://www.w3.org/TR/2001/REC-SVG-20010904/DTD/svg10.dtd">
<svg version="1.0" xmlns="http://www.w3.org/2000/svg"
 width="1024.000000pt" height="1024.000000pt" viewBox="0 0 1024.000000 1024.000000"
 preserveAspectRatio="xMidYMid meet">

<g transform="translate(0.000000,1024.000000) scale(0.100000,-0.100000)"
fill="#000000" stroke="none">
<path d="M5890 6485 c-97 -17 -226 -53 -430 -122 -186 -62 -262 -73 -374 -53
-62 11 -104 22 -276 71 -62 17 -267 48 -362 55 -113 7 -409 -11 -498 -31 -36
-9 -99 -22 -140 -30 -96 -18 -119 -25 -211 -68 -60 -28 -81 -43 -99 -74 -34
-57 -38 -121 -9 -178 29 -58 57 -81 122 -100 57 -17 67 -27 67 -70 0 -90 49
-246 106 -341 48 -81 65 -96 174 -169 112 -75 193 -101 338 -110 121 -8 221
10 327 59 164 76 211 137 374 488 17 37 31 70 31 73 0 4 13 26 30 50 33 49 66
61 130 50 44 -7 56 -23 86 -110 16 -49 42 -157 51 -213 3 -18 9 -35 14 -38 5
-3 9 -13 9 -23 0 -30 50 -119 96 -170 60 -66 167 -137 229 -151 28 -6 73 -16
100 -22 30 -7 118 -11 221 -10 l170 2 113 45 c62 25 129 56 149 69 83 53 182
205 208 322 9 38 20 130 26 204 12 165 23 194 78 216 61 25 80 58 80 144 0 82
-18 118 -73 147 -45 23 -237 61 -392 78 -27 3 -86 10 -130 15 -104 13 -242 11
-335 -5z m76 -195 c6 -6 21 -6 42 -1 38 11 72 3 105 -26 30 -26 44 -78 26 -99
-6 -8 -9 -17 -5 -21 3 -3 6 0 6 7 0 7 3 11 6 8 3 -3 -25 -46 -63 -94 -37 -49
-71 -93 -75 -99 -4 -5 -26 -32 -48 -60 -22 -27 -57 -75 -77 -105 -59 -85 -162
-188 -172 -171 -5 8 -11 9 -15 3 -11 -19 -57 3 -102 48 -24 24 -44 50 -44 58
0 45 44 132 128 252 125 177 172 236 201 249 13 7 32 23 43 36 21 27 29 30 44
15z m-1568 -80 c17 -8 32 -18 32 -22 0 -4 7 -8 15 -8 23 0 48 -45 39 -72 -6
-19 -115 -146 -285 -333 -20 -22 -61 -69 -91 -105 -57 -68 -69 -74 -105 -52
-12 7 -26 14 -30 15 -10 2 -67 67 -59 67 3 0 2 10 -3 23 -10 25 2 56 26 70 7
5 11 12 8 18 -4 5 -1 9 4 9 6 0 17 15 24 33 8 18 34 57 58 87 24 30 56 71 70
90 53 70 186 193 200 185 5 -4 9 -2 9 3 0 13 49 8 88 -8z m1909 -267 c32 -37
38 -78 16 -113 -10 -16 -64 -89 -120 -163 l-102 -134 -51 -6 c-56 -7 -91 8
-111 45 -12 22 19 73 156 259 110 151 157 176 212 112z m-1708 -2 c12 -11 25
-32 30 -48 7 -26 -4 -43 -139 -212 -81 -101 -156 -188 -165 -194 -13 -7 -20
-5 -27 7 -5 9 -13 14 -17 11 -11 -6 -37 24 -50 57 -9 24 -5 34 36 89 38 52
178 213 234 270 21 21 50 38 65 39 6 0 21 -9 33 -19z"/>
<path d="M5045 5529 c-33 -16 -50 -66 -36 -104 6 -17 11 -66 11 -108 0 -42 5
-79 10 -82 6 -3 10 -16 10 -29 0 -57 101 -70 137 -17 25 37 23 145 -6 241 -30
100 -66 128 -126 99z"/>
<path d="M5175 4585 c-49 -7 -153 -21 -230 -30 -77 -10 -148 -22 -157 -27 -28
-14 -39 -43 -28 -72 16 -44 40 -49 158 -32 173 24 322 38 391 37 116 -4 192 9
218 36 28 27 24 57 -9 86 -17 14 -39 17 -137 16 -64 -1 -156 -7 -206 -14z"/>
</g>
</svg>
